<svg xmlns="http://www.w3.org/2000/svg" width="16.489" height="13.384" viewBox="0 0 16.489 13.384">
                                                    <path data-name="Path 303" d="M966.025,1144.2v.433a9.783,9.783,0,0,1-.621,3.388,10.1,10.1,0,0,1-1.845,3.087,9.153,9.153,0,0,1-3.012,2.259,9.825,9.825,0,0,1-4.122.866,9.632,9.632,0,0,1-2.748-.4,9.346,9.346,0,0,1-2.447-1.11q.4.038.809.038a6.723,6.723,0,0,0,2.24-.376,7.022,7.022,0,0,0,1.958-1.054,3.379,3.379,0,0,1-1.958-.687,3.259,3.259,0,0,1-1.186-1.666,3.364,3.364,0,0,0,.621.056,3.488,3.488,0,0,0,.885-.113,3.267,3.267,0,0,1-1.374-.631,3.356,3.356,0,0,1-.969-1.186,3.524,3.524,0,0,1-.367-1.5v-.057a3.172,3.172,0,0,0,1.544.433,3.407,3.407,0,0,1-1.1-1.214,3.308,3.308,0,0,1-.4-1.609,3.362,3.362,0,0,1,.452-1.694,9.652,9.652,0,0,0,6.964,3.538,3.911,3.911,0,0,1-.075-.772,3.293,3.293,0,0,1,.452-1.694,3.409,3.409,0,0,1,1.233-1.233,3.257,3.257,0,0,1,1.685-.461,3.351,3.351,0,0,1,2.466,1.073,6.572,6.572,0,0,0,2.146-.828,3.272,3.272,0,0,1-.574,1.083,3.477,3.477,0,0,1-.913.8,6.869,6.869,0,0,0,1.958-.546A7.074,7.074,0,0,1,966.025,1144.2Z" transform="translate(-951.23 -1140.849)" fill="currentColor"></path>
                                                </svg>