<svg xmlns="http://www.w3.org/2000/svg" width="16.49" height="11.582" viewBox="0 0 16.49 11.582">
                                                    <path data-name="Path 321" d="M967.759,1365.592q0,1.377-.019,1.717-.076,1.114-.151,1.622a3.981,3.981,0,0,1-.245.925,1.847,1.847,0,0,1-.453.717,2.171,2.171,0,0,1-1.151.6q-3.585.265-7.641.189-2.377-.038-3.387-.085a11.337,11.337,0,0,1-1.5-.142,2.206,2.206,0,0,1-1.113-.585,2.562,2.562,0,0,1-.528-1.037,3.523,3.523,0,0,1-.141-.585c-.032-.2-.06-.5-.085-.906a38.894,38.894,0,0,1,0-4.867l.113-.925a4.382,4.382,0,0,1,.208-.906,2.069,2.069,0,0,1,.491-.755,2.409,2.409,0,0,1,1.113-.566,19.2,19.2,0,0,1,2.292-.151q1.82-.056,3.953-.056t3.952.066q1.821.067,2.311.142a2.3,2.3,0,0,1,.726.283,1.865,1.865,0,0,1,.557.49,3.425,3.425,0,0,1,.434,1.019,5.72,5.72,0,0,1,.189,1.075q0,.095.057,1C967.752,1364.1,967.759,1364.677,967.759,1365.592Zm-7.6.925q1.49-.754,2.113-1.094l-4.434-2.339v4.66Q958.609,1367.311,960.156,1366.517Z" transform="translate(-951.269 -1359.8)" fill="currentColor"></path>
                                                </svg>